HIERARCHY
ROOT root
{
	OFFSET 0.000000 0.000000 0.000000
	CHANNELS 6 Xposition Yposition Zposition Zrotation Yrotation Xrotation
	JOINT lhip
	{
		OFFSET 0.058581 -0.082280 -0.017664
		CHANNELS 3 Zrotation Yrotation Xrotation
		JOINT lknee
		{
			OFFSET 0.043451 -0.386469 0.008037
			CHANNELS 3 Zrotation Yrotation Xrotation
			JOINT lankle
			{
				OFFSET -0.014790 -0.426874 -0.037428
				CHANNELS 3 Zrotation Yrotation Xrotation
				JOINT ltoe
				{
					OFFSET 0.041054 -0.060286 0.122042
					CHANNELS 3 Zrotation Yrotation Xrotation
					End Site
					{
						OFFSET 0.000000 0.000000 0.000000
					}
				}
			}
		}
	}
	JOINT rhip
	{
		OFFSET -0.060310 -0.090513 -0.013543
		CHANNELS 3 Zrotation Yrotation Xrotation
		JOINT rknee
		{
			OFFSET -0.043257 -0.383688 -0.004843
			CHANNELS 3 Zrotation Yrotation Xrotation
			JOINT rankle
			{
				OFFSET 0.019056 -0.420046 -0.034562
				CHANNELS 3 Zrotation Yrotation Xrotation
				JOINT rtoe
				{
					OFFSET -0.034840 -0.062106 0.130323
					CHANNELS 3 Zrotation Yrotation Xrotation
					End Site
					{
						OFFSET 0.000000 0.000000 0.000000
					}
				}
			}
		}
	}
	JOINT lowerback
	{
		OFFSET 0.004439 0.124404 -0.038385
		CHANNELS 3 Zrotation Yrotation Xrotation
		JOINT upperback
		{
			OFFSET 0.004488 0.137956 0.026820
			CHANNELS 3 Zrotation Yrotation Xrotation
			JOINT chest
			{
				OFFSET -0.002265 0.056032 0.002855
				CHANNELS 3 Zrotation Yrotation Xrotation
				JOINT lowerneck
				{
					OFFSET -0.013390 0.211636 -0.033468
					CHANNELS 3 Zrotation Yrotation Xrotation
					JOINT upperneck
					{
						OFFSET 0.010113 0.088937 0.050410
						CHANNELS 3 Zrotation Yrotation Xrotation
						End Site
						{
							OFFSET 0.000000 0.000000 0.000000
						}
					}
				}
				JOINT lclavicle
				{
					OFFSET 0.071702 0.114000 -0.018898
					CHANNELS 3 Zrotation Yrotation Xrotation
					JOINT lshoulder
					{
						OFFSET 0.122921 0.045205 -0.019046
						CHANNELS 3 Zrotation Yrotation Xrotation
						JOINT lelbow
						{
							OFFSET 0.255332 -0.015649 -0.022946
							CHANNELS 3 Zrotation Yrotation Xrotation
							JOINT lwrist
							{
								OFFSET 0.265709 0.012698 -0.007375
								CHANNELS 3 Zrotation Yrotation Xrotation
								End Site
								{
									OFFSET 0.000000 0.000000 0.000000
								}
							}
						}
					}
				}
				JOINT rclavicle
				{
					OFFSET -0.082954 0.112472 -0.023707
					CHANNELS 3 Zrotation Yrotation Xrotation
					JOINT rshoulder
					{
						OFFSET -0.113228 0.046853 -0.008472
						CHANNELS 3 Zrotation Yrotation Xrotation
						JOINT relbow
						{
							OFFSET -0.260127 -0.014369 -0.031269
							CHANNELS 3 Zrotation Yrotation Xrotation
							JOINT rwrist
							{
								OFFSET -0.269108 0.006794 -0.006027
								CHANNELS 3 Zrotation Yrotation Xrotation
								End Site
								{
									OFFSET 0.000000 0.000000 0.000000
								}
							}
						}
					}
				}
			}
		}
	}
}
MOTION
Frames: 17
Frame Time: 0.033333
-0.038401 0.229472 0.978550 87.687616 -0.474929 88.218385 5.074025 -6.279714 -16.738234 0.650364 3.827783 33.747312 2.346995 5.062967 -15.563095 0.000000 -0.000000 0.000000 -2.545216 5.185241 -17.707783 -5.872268 1.673439 32.891854 0.949693 -3.491750 -12.726415 0.000000 -0.000000 0.000000 -2.100802 0.267975 9.412369 -0.494740 -4.534504 3.760226 -0.510882 -0.660537 1.104488 -1.014225 -1.810420 2.308357 5.407929 4.149515 -8.508094 10.271665 -2.359616 -1.980855 -78.389013 -10.889436 7.402232 -169.454267 -62.959744 -141.891188 -12.622824 -5.224129 -27.858966 -19.066560 7.119150 -11.642570 94.428630 25.682132 25.567471 -164.876926 46.178749 -110.737067 33.676053 -2.326409 8.066195 
-0.041310 0.229403 0.978988 87.474707 -0.398603 88.664424 5.373476 -6.928146 -17.487236 0.409281 4.043496 33.751658 2.699371 5.925034 -15.044985 0.000000 -0.000000 0.000000 -2.452997 5.291864 -18.424106 -5.647127 2.116734 32.750791 0.831673 -3.842345 -12.297726 0.000000 -0.000000 0.000000 -2.163029 0.143284 9.742273 -0.665676 -4.523296 4.411231 -0.758079 -0.665087 1.798498 -0.141919 -1.762162 1.350462 5.640498 4.395377 -8.585871 10.292314 -2.266158 -1.525373 -80.103497 -8.747488 10.693758 -162.202960 -60.441128 -151.380454 -9.638985 -6.256845 -36.964452 -19.855832 6.897517 -12.065369 93.002682 29.143231 25.480518 -158.562662 46.805527 -104.504496 28.684713 -5.170796 14.301509 
-0.043492 0.229248 0.979647 88.208635 -0.213400 89.329548 5.642952 -7.442282 -18.424795 0.448010 3.955887 33.476886 2.822853 5.952062 -14.639161 0.000000 -0.000000 0.000000 -2.331759 4.886163 -18.994495 -5.881518 1.827237 32.337969 1.138067 -3.622479 -11.973355 0.000000 -0.000000 0.000000 -2.016891 0.107497 10.244484 -0.778336 -4.505388 3.959379 -0.729964 -0.788823 2.166875 -0.395732 -2.122285 1.742739 6.575938 4.383897 -8.336705 10.019390 -3.044273 -1.593949 -81.812207 -10.465736 14.056763 -163.322419 -58.009038 -152.450050 -8.404291 -5.899678 -42.095031 -19.242061 5.968536 -11.538961 91.896560 28.042498 24.737904 -152.669567 52.321830 -98.784796 26.874544 -8.411884 18.872342 
-0.045458 0.227897 0.980780 89.628470 0.047494 90.007867 6.144173 -8.055576 -19.461096 0.313769 3.640713 33.100924 2.507211 5.586636 -14.118022 0.000000 -0.000000 0.000000 -2.196384 4.677225 -19.327395 -6.082063 1.010699 31.748668 1.344143 -3.935409 -11.512507 0.000000 -0.000000 0.000000 -2.035285 0.146808 10.350032 -0.643468 -4.284270 4.273726 -0.320682 -1.434080 2.026964 -1.257289 -2.218967 1.699995 7.267320 4.105226 -7.528781 10.036290 -3.900506 -2.706560 -82.619210 -15.960699 15.431841 -170.203507 -54.895363 -143.904120 -7.711736 -6.016045 -40.336056 -18.262285 5.007118 -10.454818 91.764868 24.148001 23.734447 -145.288936 60.892799 -90.546259 28.576367 -9.883880 19.796060 
-0.046328 0.226375 0.981604 91.046772 0.168691 90.301713 6.314376 -8.453069 -20.065035 0.127651 2.808662 32.897648 2.129666 5.372916 -13.732114 0.000000 -0.000000 0.000000 -2.070885 4.484348 -19.235085 -6.474442 0.073883 31.432383 1.537640 -4.476006 -11.453162 0.000000 -0.000000 0.000000 -2.048733 -0.033852 11.171566 -0.737959 -4.197940 3.952432 0.214317 -1.296696 2.023571 -3.014272 -2.792423 1.583052 8.399886 4.194277 -7.312647 10.824150 -5.193524 -4.233059 -83.129404 -21.886558 15.150998 -179.361816 -52.270966 -133.039781 -4.884821 -4.670826 -37.001361 -17.547506 5.262024 -9.161972 92.360244 18.467987 22.325826 -139.942257 68.103721 -83.682721 33.619853 -10.638470 18.102780 
-0.046415 0.224801 0.982054 92.053323 0.231153 90.615020 6.198905 -8.248710 -20.549648 0.392585 1.986469 32.757632 1.618431 4.849518 -13.561691 0.000000 -0.000000 0.000000 -1.782162 4.380425 -19.355102 -7.029579 -0.463615 31.347542 1.603161 -4.399329 -11.548366 0.000000 -0.000000 0.000000 -1.628487 -0.334769 13.345868 -1.082152 -4.222755 2.183922 0.659570 -0.735200 1.452595 -5.327287 -3.272161 1.384635 9.500821 4.295200 -7.678065 11.259699 -6.562929 -5.437866 -81.594258 -25.887902 12.160838 173.884437 -49.321525 -123.822284 -4.683021 -4.184265 -31.686933 -16.655766 6.573319 -7.294658 92.713130 11.699368 20.275764 -154.203269 70.016284 -96.827973 38.679317 -6.724362 11.542293 
-0.046850 0.223806 0.981107 92.362333 0.154451 91.012533 5.979615 -7.996966 -21.164483 0.582045 1.393604 32.876779 1.399736 4.738383 -13.493682 0.000000 -0.000000 0.000000 -1.647133 4.552778 -20.044371 -7.304647 -0.430653 31.826317 1.410854 -4.973864 -11.704070 0.000000 -0.000000 0.000000 -1.492314 -0.462614 14.176320 -1.090607 -4.144463 1.596116 1.036428 -0.909918 1.746829 -6.928340 -3.146701 0.488398 9.309395 5.050781 -8.277009 11.273702 -6.048121 -6.196567 -80.103540 -26.873573 9.411025 169.342268 -48.577762 -119.197863 -2.651683 -2.940686 -27.514257 -16.339918 6.738789 -6.835533 94.235799 7.827087 21.563013 -170.265814 68.355511 -115.670502 39.732145 -2.153163 4.558923 
-0.046613 0.222968 0.980613 91.804099 0.087141 91.254545 5.881490 -7.583558 -21.417370 0.954016 1.577310 33.146540 0.906579 4.433274 -13.672947 0.000000 -0.000000 0.000000 -1.578152 5.145302 -20.546679 -7.798284 -0.765545 32.238557 1.363145 -4.720936 -11.736759 0.000000 -0.000000 0.000000 -1.562393 -0.655431 14.650084 -1.113565 -4.017273 1.605503 1.146725 -0.954746 1.384865 -6.788504 -2.257841 0.472648 8.266295 5.565834 -8.322263 10.758956 -4.590300 -5.841858 -78.623464 -24.350873 6.898975 167.876026 -50.751371 -118.202012 -6.607302 -3.505587 -23.828382 -16.205597 7.110020 -6.834426 94.767478 8.454285 23.293611 -179.345431 63.987653 -126.649259 40.525867 1.943044 0.885849 
-0.046398 0.223015 0.980597 90.780431 -0.026431 91.225135 5.817116 -7.277360 -21.203600 1.140336 2.161015 33.257462 1.151409 4.548486 -13.781119 0.000000 -0.000000 0.000000 -1.659362 5.397799 -20.644735 -7.592354 -0.285145 32.195204 1.168740 -4.599992 -11.673155 0.000000 -0.000000 0.000000 -1.667071 -0.129772 14.701670 -0.975447 -3.998183 2.068894 0.787642 -0.507902 1.125842 -5.591974 -1.908508 1.060773 7.887918 5.098262 -7.816692 10.084246 -3.976541 -5.327042 -77.089723 -20.163186 6.020769 170.289434 -56.950528 -122.053302 -8.881107 -3.727002 -21.536584 -16.349519 8.401455 -8.046714 95.113420 11.874487 24.942065 -175.515309 57.228466 -123.532615 38.989976 1.714237 1.621426 
-0.046552 0.223441 0.981228 89.693155 -0.026136 91.333067 6.018390 -7.113563 -21.174007 1.202275 3.013064 33.488027 1.462995 4.690323 -13.945790 0.000000 -0.000000 0.000000 -1.876467 5.594191 -20.991000 -6.967629 0.222176 32.273700 1.047852 -4.459810 -11.478167 0.000000 -0.000000 0.000000 -1.779503 0.481406 13.737002 -0.659546 -4.083230 3.507079 0.196615 -0.266388 1.298479 -3.257134 -1.382494 0.766003 7.198071 4.114770 -7.696527 9.560847 -3.405032 -4.450973 -76.230562 -15.571527 6.274436 177.650794 -62.468935 -130.537486 -11.437872 -4.471305 -21.758574 -16.866528 8.808734 -10.063609 95.287933 18.483998 26.134492 -169.108391 50.964467 -116.483481 36.782180 -0.699468 5.547436 
-0.047163 0.224431 0.981381 89.110814 0.032438 91.653558 6.332370 -7.143196 -21.766637 1.274672 3.915837 34.141598 1.605811 4.549762 -14.152962 0.000000 -0.000000 0.000000 -2.186202 5.859111 -21.626311 -6.496282 0.239310 32.578903 0.973395 -4.259472 -11.345596 0.000000 -0.000000 0.000000 -1.855559 0.745196 13.458332 -0.336515 -4.017133 3.929398 -0.321717 -0.514240 1.199768 -0.740512 -0.948893 0.418160 6.388816 3.655532 -7.685007 8.998674 -3.500968 -2.501470 -76.030487 -11.406890 7.071490 -171.413678 -62.869002 -140.187005 -15.588094 -6.623684 -25.273805 -17.487168 9.036288 -11.435010 94.822139 25.477715 25.898707 -162.925821 46.135672 -108.581044 36.569145 -2.668155 9.359973 
-0.047377 0.225577 0.981206 89.068504 0.028035 92.048818 6.531735 -7.377515 -22.453036 0.991304 4.162347 34.527753 2.292392 4.918668 -14.146065 0.000000 -0.000000 0.000000 -2.339747 5.525628 -22.209129 -6.147063 0.605276 32.759802 0.884707 -4.343130 -11.293039 0.000000 -0.000000 0.000000 -1.734258 0.783483 13.517511 -0.508250 -3.963240 3.448740 -0.724669 -0.242302 1.386820 0.442238 -1.447194 0.175664 6.924434 3.689932 -7.894128 8.642995 -3.315959 -1.768874 -76.823961 -8.342014 9.608582 -162.520882 -60.973783 -150.768691 -14.277994 -7.313706 -32.119103 -17.863171 8.953350 -11.558817 93.437516 28.760085 24.868046 -158.060892 43.988964 -102.791536 31.825339 -6.338359 16.541475 
-0.046551 0.226279 0.981564 89.622806 -0.026493 92.521300 6.704155 -7.835116 -22.906897 0.709528 4.403245 34.201439 2.720193 4.924480 -13.934726 0.000000 -0.000000 0.000000 -2.446458 5.086350 -22.494672 -6.211308 0.589676 32.562469 1.122833 -4.424866 -11.242577 0.000000 -0.000000 0.000000 -1.772496 0.939407 13.469582 -0.557953 -3.780755 2.416168 -0.765742 -0.045924 1.793236 0.368840 -1.865981 0.252252 7.833613 3.379653 -7.606793 8.478335 -3.296081 -1.524205 -78.849923 -8.602761 12.933060 -160.400563 -58.447670 -154.673980 -12.353476 -7.942377 -37.403325 -17.190381 7.506260 -10.758154 91.492934 27.060143 23.305723 -154.914074 47.010214 -99.358658 31.043639 -9.397831 20.449095 
-0.044655 0.226482 0.982388 90.872152 -0.083552 92.712435 6.498141 -8.070089 -23.033957 0.529546 3.700585 33.781421 2.808117 4.779746 -13.798540 0.000000 -0.000000 0.000000 -2.502313 4.437709 -22.220637 -6.627464 -0.042635 32.347882 1.665237 -4.223195 -11.398575 0.000000 -0.000000 0.000000 -1.422724 0.520212 15.201578 -1.121340 -3.330306 -0.930672 -0.461590 -0.031660 1.573786 -1.666498 -2.829731 2.103776 8.819741 4.306927 -7.453194 7.884661 -2.846771 -2.041749 -80.095694 -11.916240 15.096659 -163.077737 -54.835426 -152.225771 -10.257188 -7.456123 -39.021725 -15.877608 5.985168 -8.491938 90.007965 21.251609 21.446960 -153.169288 54.659178 -98.445898 30.865116 -9.957942 21.393018 
-0.044350 0.225326 0.982560 92.513783 -0.024008 92.492773 6.610265 -8.792389 -23.100178 0.167830 3.062524 33.798536 2.409216 4.737230 -13.886200 0.000000 -0.000000 0.000000 -2.525895 4.153930 -21.627956 -6.791849 -0.969602 32.469442 1.957753 -4.650921 -11.758725 0.000000 -0.000000 0.000000 -1.394654 0.246140 14.507257 -1.189520 -3.318041 -0.076867 -0.085737 -0.126282 2.084250 -3.482348 -2.325312 1.253483 9.090486 4.645482 -6.907431 8.131769 -3.117294 -4.230940 -81.286918 -18.687119 16.212213 -171.570808 -52.475385 -142.453510 -8.040510 -6.851348 -36.585706 -14.568466 4.603133 -7.437075 88.781244 16.165454 20.597275 -150.803767 64.476503 -96.077842 34.688103 -9.508238 18.834110 
-0.043784 0.224154 0.981748 93.797985 0.141788 92.402766 6.740729 -8.880035 -23.351193 0.052461 2.351257 34.067056 2.096537 4.211967 -14.025826 0.000000 -0.000000 0.000000 -2.325193 3.824015 -21.367095 -7.031171 -1.617017 32.763593 1.972837 -4.869804 -12.223461 0.000000 -0.000000 0.000000 -1.348436 0.051640 14.328888 -1.126693 -3.340235 0.188438 0.419585 -0.144376 2.336013 -5.162475 -1.458876 -0.014205 9.404138 5.434112 -6.625035 8.764205 -4.067494 -6.434854 -81.796616 -24.741514 15.509477 179.900988 -50.141163 -132.532044 -7.677168 -5.930420 -32.053147 -13.609865 4.204029 -6.187502 88.892890 10.717316 19.976645 -159.452087 69.469316 -104.298002 40.026011 -8.452244 14.943388 
-0.043282 0.223568 0.980452 94.344435 0.419263 92.154463 6.740045 -8.527337 -23.324967 0.027041 1.327736 34.398558 1.741700 4.202839 -14.180255 0.000000 -0.000000 0.000000 -1.966767 3.539014 -21.205941 -6.971177 -1.822016 33.112540 1.774421 -4.853804 -12.745028 0.000000 -0.000000 0.000000 -1.254564 0.209540 14.888939 -0.896702 -3.435034 -0.080500 1.097347 -0.113379 2.385087 -6.096065 0.002827 -1.201785 9.602725 7.024287 -6.501538 9.556757 -5.939697 -7.797141 -80.707939 -28.098973 13.074808 173.071303 -48.676302 -124.103886 -5.256094 -4.171286 -28.351592 -13.429924 5.730449 -5.350063 89.644596 6.524939 20.367088 -171.581118 67.438863 -116.989831 40.371593 -3.567575 7.134455 
